<svg xmlns="http://www.w3.org/2000/svg" width="31" height="23" viewBox="0 0 31 23">
  <defs>
    <style>
      .cls-1 {
        fill: none;
        stroke: #ffecc0;
        stroke-linecap: round;
        stroke-linejoin: round;
        stroke-width: 1px;
        fill-rule: evenodd;
      }
    </style>
  </defs>
  <path id="икон" class="cls-1" d="M728.555,131.6c4.319-1.88,11.553-2.433,14.359-2.267v0.111c-5.938,1.161-10.364,2.82-11.552,4.368,1.08,0.663,2.16,1.547,2.916,2.1a17.531,17.531,0,0,1,11.011-5.42v0.111a26.918,26.918,0,0,0-8.637,7.078,19.907,19.907,0,0,1,3.024,2.323c3.454-6.858,7.341-8.848,9.824-9.954a2.735,2.735,0,0,0,2.591,1.879,2.931,2.931,0,0,0,0-5.861,2.734,2.734,0,0,0-2.591,1.88c-2.483-1.107-6.37-3.1-9.824-9.954a19.909,19.909,0,0,1-3.024,2.322c1.619,2.434,5.507,5.53,8.637,7.079v0.11a17.534,17.534,0,0,1-11.011-5.419c-0.756.553-1.836,1.438-2.916,2.1,1.188,1.549,5.614,3.208,11.552,4.369v0.111c-2.806.166-10.04-.388-14.359-2.268a28.014,28.014,0,0,1-3.562,2.656A28.231,28.231,0,0,1,728.555,131.6Z" transform="translate(-724.5 -117.5)"/>
</svg>
