<svg xmlns="http://www.w3.org/2000/svg" width="31" height="23" viewBox="0 0 31 23">
  <defs>
    <style>
      .cls-1 {
        fill: none;
        stroke: #ffecc0;
        stroke-linecap: round;
        stroke-linejoin: round;
        stroke-width: 1px;
        fill-rule: evenodd;
      }
    </style>
  </defs>
  <path id="икон_copy" data-name="икон copy" class="cls-1" d="M1256.44,131.6c-4.31-1.88-11.55-2.433-14.35-2.267v0.111c5.93,1.161,10.36,2.82,11.55,4.368-1.08.663-2.16,1.547-2.92,2.1a17.525,17.525,0,0,0-11.01-5.42v0.111a26.942,26.942,0,0,1,8.64,7.078,20,20,0,0,0-3.03,2.323c-3.45-6.858-7.34-8.848-9.82-9.954a2.735,2.735,0,0,1-2.59,1.879,2.931,2.931,0,0,1,0-5.861,2.735,2.735,0,0,1,2.59,1.88c2.48-1.107,6.37-3.1,9.82-9.954a20,20,0,0,0,3.03,2.322c-1.62,2.434-5.51,5.53-8.64,7.079v0.11a17.528,17.528,0,0,0,11.01-5.419c0.76,0.553,1.84,1.438,2.92,2.1-1.19,1.549-5.62,3.208-11.55,4.369v0.111c2.8,0.166,10.04-.388,14.35-2.268a28.232,28.232,0,0,0,3.57,2.656A28.457,28.457,0,0,0,1256.44,131.6Z" transform="translate(-1229.5 -117.5)"/>
</svg>
