<?xml version="1.0" standalone="no"?>
<!DOCTYPE svg PUBLIC "-//W3C//DTD SVG 20010904//EN"
 "http://www.w3.org/TR/2001/REC-SVG-20010904/DTD/svg10.dtd">
<svg version="1.0" xmlns="http://www.w3.org/2000/svg"
 width="80.000000pt" height="80.000000pt" viewBox="0 0 80.000000 80.000000"
 preserveAspectRatio="xMidYMid meet">
<metadata>
Created by potrace 1.11, written by Peter Selinger 2001-2013
</metadata>
<g transform="translate(0.000000,80.000000) scale(0.100000,-0.100000)"
fill="#000000" stroke="none">
<path d="M290 784 c-120 -36 -230 -141 -268 -257 -16 -47 -20 -82 -18 -145 3
-71 8 -92 40 -157 45 -92 117 -159 208 -195 93 -37 219 -35 302 3 163 75 249
212 242 384 -3 66 -9 94 -34 146 -39 85 -110 156 -194 197 -57 27 -81 33 -150
35 -50 2 -101 -2 -128 -11z"/>
</g>
</svg>
